<?xml version="1.0" standalone="no"?>
<!DOCTYPE svg PUBLIC "-//W3C//DTD SVG 20010904//EN"
 "http://www.w3.org/TR/2001/REC-SVG-20010904/DTD/svg10.dtd">
<svg version="1.0" xmlns="http://www.w3.org/2000/svg"
 width="700.000000pt" height="700.000000pt" viewBox="0 0 700.000000 700.000000"
 preserveAspectRatio="xMidYMid meet">
<metadata>
Created by potrace 1.14, written by Peter Selinger 2001-2017
</metadata>
<g transform="translate(0.000000,700.000000) scale(0.100000,-0.100000)"
fill="#000000" stroke="none">
<path d="M1555 5833 c-11 -3 -45 -16 -75 -30 -48 -21 -142 -112 -716 -686
-758 -759 -719 -711 -719 -877 0 -170 -35 -126 717 -878 359 -359 672 -664
694 -677 137 -81 325 -59 441 52 93 89 118 175 117 391 0 78 2 142 5 143 3 0
708 2 1566 3 858 1 1569 6 1580 10 135 57 187 102 237 203 28 57 32 77 37 179
l6 114 505 -505 505 -505 -505 -505 -505 -505 -6 114 c-5 92 -12 125 -32 169
-30 66 -95 139 -151 172 -91 53 -57 51 -1376 51 l-1225 -1 -45 -23 c-48 -26
-81 -59 -108 -107 -17 -32 -23 -130 -9 -178 10 -38 72 -104 121 -130 l41 -21
1160 0 1160 -1 2 -153 c1 -85 7 -177 14 -204 45 -192 245 -316 439 -273 103
22 119 37 799 717 702 702 700 700 719 820 4 29 4 79 0 110 -16 122 -15 121
-679 786 -338 338 -638 636 -668 663 -80 74 -149 101 -257 100 -158 -1 -303
-110 -348 -261 -12 -40 -17 -97 -17 -212 -1 -113 -4 -158 -12 -159 -7 -1 -709
-2 -1562 -4 l-1550 -2 -57 -22 c-105 -41 -181 -116 -222 -221 -11 -28 -20 -85
-23 -150 -3 -58 -6 -106 -7 -107 -1 -1 -229 225 -506 502 l-503 503 506 507
c566 566 509 523 509 384 0 -158 84 -291 226 -357 l57 -27 1237 -2 c830 -1
1250 2 1278 9 50 13 122 78 144 132 47 114 -8 247 -124 299 -44 20 -66 20
-1200 21 l-1155 1 -1 150 c-1 173 -6 211 -40 280 -37 73 -99 133 -178 170 -58
27 -80 32 -145 33 -42 0 -85 -2 -96 -5z"/>
</g>
</svg>
